<?xml version="1.0" encoding="UTF-8" standalone="no" ?>
<!DOCTYPE svg PUBLIC "-//W3C//DTD SVG 1.1//EN" "http://www.w3.org/Graphics/SVG/1.1/DTD/svg11.dtd">
<svg xmlns="http://www.w3.org/2000/svg" xmlns:xlink="http://www.w3.org/1999/xlink" version="1.1" width="490.58546875" height="282.6234" xml:space="preserve">
<desc>Created with Fabric.js 1.6.0-rc.1</desc>
<defs></defs>
<g style="stroke: none; stroke-width: 1; stroke-dasharray: none; stroke-linecap: butt; stroke-linejoin: miter; stroke-miterlimit: 10; fill: none; fill-rule: nonzero; opacity: 1;" transform="translate(10 10) scale(0.26 0.26)" >
  <path d="M 977.59 504.543 c 18.676 1.316 32.734 17.533 31.414 36.214 c -1.335 18.678 -17.545 32.736 -36.222 31.412 c 18.093 3.926 29.59 21.767 25.67 39.863 c -3.926 18.089 -21.773 29.582 -39.866 25.659 c 17.53 6.542 26.45 26.064 19.912 43.602 c -6.553 17.533 -26.06 26.446 -43.605 19.907 c 16.34 8.935 22.33 29.417 13.388 45.756 c -8.935 16.328 -29.423 22.325 -45.763 13.384 c 14.86 11.121 17.87 32.181 6.748 47.032 c -11.129 14.85 -32.194 17.869 -47.032 6.737 c 13.171 13.167 13.2 34.516 0.036 47.693 c -13.164 13.182 -34.526 13.199 -47.697 0.036 c 11.215 14.953 8.184 36.171 -6.762 47.394 c -14.96 11.223 -36.172 8.194 -47.395 -6.755 c 8.957 16.364 2.96 36.882 -13.4 45.842 c -16.369 8.956 -36.894 2.951 -45.857 -13.409 c 6.531 17.465 -2.353 36.907 -19.825 43.425 c -17.458 6.523 -36.907 -2.35 -43.424 -19.818 c 3.97 18.292 -7.657 36.323 -25.93 40.278 c -18.289 3.962 -36.33 -7.65 -40.286 -25.945 c 1.307 18.544 -12.658 34.634 -31.206 35.944 c -18.54 1.303 -34.634 -12.677 -35.947 -31.203 c -1.32 18.667 -17.537 32.736 -36.208 31.416 c -18.67 -1.332 -32.743 -17.541 -31.415 -36.219 c -3.919 18.09 -21.773 29.582 -39.859 25.656 c -18.093 -3.922 -29.582 -21.763 -25.656 -39.862 c -6.545 17.537 -26.067 26.45 -43.612 19.911 c -17.537 -6.546 -26.443 -26.067 -19.897 -43.601 c -8.942 16.328 -29.43 22.325 -45.755 13.384 c -16.332 -8.942 -22.322 -29.424 -13.395 -45.749 c -11.114 14.853 -32.18 17.862 -47.026 6.733 c -14.859 -11.121 -17.869 -32.18 -6.74 -47.028 c -13.164 13.174 -34.526 13.182 -47.69 0.024 c -13.185 -13.167 -13.192 -34.511 -0.036 -47.692 c -14.96 11.219 -36.17 8.194 -47.394 -6.755 c -11.222 -14.95 -8.198 -36.172 6.763 -47.397 c -16.368 8.956 -36.886 2.959 -45.842 -13.409 c -8.956 -16.364 -2.959 -36.882 13.41 -45.839 c -17.48 6.518 -36.916 -2.363 -43.44 -19.821 c -6.517 -17.468 2.353 -36.91 19.818 -43.428 c -18.288 3.951 -36.315 -7.66 -40.278 -25.952 c -3.947 -18.28 7.665 -36.315 25.952 -40.267 c -18.547 1.303 -34.634 -12.677 -35.94 -31.206 c -1.306 -18.548 12.66 -34.631 31.206 -35.94 C 12.83 503.23 -1.229 487.013 0.085 468.336 c 1.321 -18.677 17.552 -32.74 36.23 -31.416 c -18.094 -3.926 -29.59 -21.766 -25.665 -39.863 c 3.92 -18.089 21.76 -29.585 39.852 -25.656 c -17.53 -6.546 -26.443 -26.064 -19.912 -43.608 c 6.546 -17.534 26.061 -26.443 43.598 -19.904 c -16.325 -8.942 -22.315 -29.42 -13.387 -45.755 c 8.941 -16.325 29.431 -22.315 45.762 -13.384 c -14.852 -11.125 -17.862 -32.181 -6.733 -47.033 c 11.136 -14.853 32.188 -17.866 47.026 -6.737 c -13.17 -13.167 -13.193 -34.515 -0.022 -47.7 c 13.157 -13.175 34.52 -13.192 47.69 -0.029 c -11.216 -14.95 -8.199 -36.171 6.754 -47.394 c 14.968 -11.223 36.171 -8.199 47.394 6.755 c -8.963 -16.364 -2.952 -36.886 13.41 -45.842 c 16.36 -8.96 36.885 -2.956 45.848 13.409 c -6.524 -17.465 2.36 -36.904 19.811 -43.431 c 17.465 -6.514 36.907 2.356 43.438 19.821 c -3.969 -18.288 7.65 -36.323 25.938 -40.276 c 18.28 -3.958 36.323 7.655 40.277 25.943 C 436.088 17.695 450.06 1.609 468.607 0.298 c 18.526 -1.305 34.627 12.675 35.926 31.204 c 1.335 -18.67 17.551 -32.745 36.222 -31.415 c 18.67 1.326 32.743 17.544 31.415 36.214 c 3.92 -18.089 21.773 -29.582 39.86 -25.654 c 18.092 3.917 29.581 21.761 25.655 39.854 c 6.546 -17.541 26.067 -26.446 43.604 -19.908 c 17.537 6.546 26.457 26.067 19.904 43.604 c 8.935 -16.335 29.424 -22.322 45.763 -13.387 c 16.317 8.938 22.322 29.423 13.388 45.748 c 11.128 -14.845 32.18 -17.858 47.018 -6.733 c 14.86 11.128 17.884 32.184 6.748 47.033 c 13.156 -13.182 34.526 -13.189 47.704 -0.029 c 13.171 13.164 13.178 34.511 0.03 47.689 c 14.952 -11.219 36.17 -8.191 47.385 6.759 c 11.23 14.954 8.191 36.171 -6.755 47.401 c 16.36 -8.967 36.88 -2.962 45.835 13.409 c 8.963 16.361 2.966 36.882 -13.409 45.834 c 17.48 -6.517 36.907 2.356 43.432 19.821 c 6.531 17.469 -2.339 36.908 -19.818 43.428 c 18.288 -3.955 36.33 7.661 40.278 25.945 c 3.955 18.291 -7.657 36.323 -25.938 40.281 c 18.547 -1.306 34.634 12.669 35.933 31.199 c 1.321 18.555 -12.658 34.635 -31.198 35.948 z" style="stroke: none; stroke-width: 1; stroke-dasharray: none; stroke-linecap: butt; stroke-linejoin: miter; stroke-miterlimit: 10; fill: #d4552a; fill-rule: nonzero; opacity: 1;" transform="" stroke-linecap="round" />
  <path d="M 774.562 506.087 s -20.958 -29.146 -89.46 12.381 c 0 0 -73.058 41.039 -53.832 84.684 c 0 0 -162.69 101.622 -222.953 143.852 c 0 0 -72.588 39.112 -60.023 67.828 c 0 0 20.64 23.325 77.17 -29.539 c 0 0 89.663 -90.666 212.495 -173.459 c 0 0 35.003 53.297 107.894 -29.174 c -0.01 0 41.071 -51.534 28.71 -76.573 z" style="stroke: none; stroke-width: 1; stroke-dasharray: none; stroke-linecap: butt; stroke-linejoin: miter; stroke-miterlimit: 10; fill: #030303; fill-rule: nonzero; opacity: 1;" transform="" stroke-linecap="round" />
  <path d="M 375.667 595.455 s 14.03 -32.901 -34.894 -63.119 c 0 0 -45.012 -29.859 -74.703 -37.221 l -1.45 3.189 l 47.335 35.713 l -7.397 11.529 l -52.17 -32.317 l -1.776 3.031 l 49.356 34.734 l -6.806 12.244 l -52.9 -32.285 l -2.252 3.078 l 49.732 36.554 l -7.52 12.835 l -54.19 -32.905 l -2.354 2.876 s 36.171 37.352 68.698 56.797 c 0 0 46.81 30.488 76.5 -3.24 c 0 0 175.394 116.922 238.426 190.39 c 0 0 41.592 43.512 55.902 26.104 c 0 0 29.662 -19.382 -29.207 -60.63 c 0 0 -180.957 -125.693 -258.33 -167.357 z m 45.373 -124.864 c 0.844 20.485 0.895 43.449 -0.26 68.95 l 171.713 4.251 s -0.715 -32.498 0.592 -72.31 c -38.654 -4.496 -101.29 -8.606 -172.045 -0.891 z" style="stroke: none; stroke-width: 1; stroke-dasharray: none; stroke-linecap: butt; stroke-linejoin: miter; stroke-miterlimit: 10; fill: #030303; fill-rule: nonzero; opacity: 1;" transform="" stroke-linecap="round" />
  <path d="M 655.136 274.817 s -11.208 -61.138 -81.516 -28.532 c 0 0 -7.137 -54.805 -71.36 -54.794 c 0 0 -70.279 3.507 -67.21 58.875 c 0 0 -49.603 -42.457 -80.506 14.261 c 0 0 -31.589 58.76 44.838 76.427 c 0 0 18.05 42.136 21.658 129.541 c 70.755 -7.715 133.391 -3.605 172.045 0.891 c 1.623 -49.089 6.321 -109.297 19.262 -133.491 c -0.01 -0.004 52.98 -11.212 42.79 -63.178 z" style="stroke: none; stroke-width: 1; stroke-dasharray: none; stroke-linecap: butt; stroke-linejoin: miter; stroke-miterlimit: 10; fill: #f2b830; fill-rule: nonzero; opacity: 0;" transform="" stroke-linecap="round" />
  <path d="M 561.396 440.908 s 25.476 -71.325 13.242 -75.399 c 0 0 -11.2 -8.155 -13.242 75.399 z m -99.796 0.693 s 1.796 -75.72 -11.093 -75.752 c 0 -0.001 -13.207 -4.219 11.092 75.752 z m 45.408 0.04 s 16.513 -73.916 3.876 -76.46 c 0 0 -12.132 -6.712 -3.876 76.46 z M 602.156 335.443 s -48.404 -8.152 -48.909 -37.698 c 0 0 -57.577 31.076 -101.896 0 c 0 0 -3.313 29.755 -30.57 35.655 c 0 0 25.273 -4.579 33.53 -24.447 c 0 0 46.455 24.455 93.841 1.021 c -0.01 0.001 14.773 27.512 54.004 25.469 z" style="stroke: none; stroke-width: 1; stroke-dasharray: none; stroke-linecap: butt; stroke-linejoin: miter; stroke-miterlimit: 10; fill: #030303; fill-rule: nonzero; opacity: 1;" transform="" stroke-linecap="round" />
  <path d="M 541.91 93.496 c 0.057 -0.61 0.526 -1.025 1.118 -0.971 c 0.592 0.058 0.952 0.541 0.895 1.166 c -0.065 0.606 -0.52 1.021 -1.14 0.963 c -0.57 -0.054 -0.938 -0.549 -0.874 -1.158 z m 3.377 0.332 c 0.064 -0.606 0.534 -1.018 1.126 -0.96 c 0.592 0.068 0.952 0.541 0.888 1.166 c -0.072 0.61 -0.527 1.025 -1.147 0.96 c -0.57 -0.059 -0.939 -0.557 -0.867 -1.166 z m 3.32 0.353 c 0.08 -0.603 0.55 -1.007 1.133 -0.945 c 0.592 0.068 0.953 0.552 0.881 1.18 c -0.072 0.603 -0.526 1.011 -1.154 0.945 c -0.565 -0.065 -0.918 -0.567 -0.86 -1.18 z m 3.37 0.39 c 0.072 -0.606 0.55 -1.01 1.141 -0.935 c 0.585 0.068 0.938 0.552 0.866 1.176 c -0.079 0.606 -0.534 1.014 -1.162 0.938 c -0.57 -0.064 -0.918 -0.569 -0.845 -1.179 z m 8.646 -3.969 c 0.62 -4.031 3.89 -6.625 7.802 -6.022 c 3.926 0.599 6.163 3.926 5.527 8.068 c -0.62 4.031 -3.767 6.643 -7.917 6.004 c -3.802 -0.581 -6.025 -4.02 -5.412 -8.05 z m 43.858 8.522 c 1.046 -3.937 4.568 -6.17 8.407 -5.153 c 3.832 1.018 5.701 4.558 4.626 8.617 c -1.046 3.937 -4.46 6.199 -8.523 5.121 c -3.724 -0.988 -5.564 -4.64 -4.51 -8.585 z m 42.666 13.183 c 1.465 -3.804 5.211 -5.644 8.906 -4.218 c 3.702 1.425 5.182 5.153 3.673 9.061 c -1.465 3.807 -5.103 5.684 -9.014 4.182 c -3.587 -1.386 -5.023 -5.219 -3.565 -9.025 z m 41.035 17.699 c 1.87 -3.623 5.781 -5.052 9.311 -3.237 c 3.53 1.815 4.597 5.676 2.685 9.407 c -1.869 3.62 -5.687 5.099 -9.418 3.183 c -3.43 -1.761 -4.44 -5.727 -2.578 -9.353 z m 38.899 22.001 c 2.237 -3.41 6.286 -4.41 9.606 -2.23 c 3.305 2.18 3.962 6.134 1.66 9.638 c -2.245 3.406 -6.2 4.471 -9.7 2.162 c -3.218 -2.115 -3.81 -6.164 -1.566 -9.57 z m 36.294 26.002 c 2.591 -3.154 6.727 -3.713 9.786 -1.19 c 3.061 2.515 3.291 6.521 0.628 9.757 c -2.598 3.15 -6.64 3.782 -9.88 1.119 c -2.966 -2.45 -3.125 -6.539 -0.534 -9.686 z m 33.395 29.752 c 2.914 -2.854 7.078 -2.977 9.857 -0.145 c 2.778 2.833 2.576 6.838 -0.419 9.772 c -2.908 2.854 -7 3.056 -9.93 0.068 c -2.707 -2.752 -2.425 -6.837 0.491 -9.695 z m 30.013 33.112 c 3.197 -2.526 7.361 -2.205 9.815 0.906 c 2.461 3.107 1.84 7.069 -1.458 9.67 c -3.197 2.53 -7.282 2.295 -9.88 -0.992 c -2.388 -3.024 -1.68 -7.051 1.523 -9.584 z m 26.327 36.102 c 3.45 -2.176 7.542 -1.415 9.664 1.941 c 2.107 3.356 1.075 7.228 -2.476 9.469 c -3.457 2.176 -7.49 1.505 -9.729 -2.039 c -2.055 -3.262 -0.915 -7.195 2.541 -9.371 z m 22.323 38.719 c 3.666 -1.793 7.657 -0.595 9.403 2.97 c 1.747 3.562 0.296 7.3 -3.47 9.144 c -3.66 1.79 -7.607 0.697 -9.448 -3.063 c -1.696 -3.469 -0.15 -7.254 3.515 -9.051 z m 18.035 40.833 c 3.832 -1.393 7.68 0.231 9.028 3.958 c 1.35 3.724 -0.49 7.289 -4.43 8.715 c -3.834 1.389 -7.637 -0.119 -9.065 -4.063 c -1.313 -3.619 0.628 -7.217 4.467 -8.61 z m 13.546 42.577 c 3.963 -0.971 7.614 1.054 8.553 4.907 c 0.945 3.854 -1.277 7.188 -5.348 8.191 c -3.963 0.967 -7.578 -0.945 -8.574 -5.016 c -0.916 -3.738 1.407 -7.111 5.37 -8.082 z m 8.906 43.785 c 4.041 -0.538 7.447 1.858 7.975 5.792 c 0.526 3.926 -2.043 7.015 -6.192 7.574 c -4.049 0.538 -7.44 -1.747 -7.996 -5.904 c -0.514 -3.821 2.164 -6.921 6.213 -7.462 z m 4.171 44.536 c 4.078 -0.105 7.21 2.648 7.318 6.606 c 0.094 3.966 -2.77 6.763 -6.972 6.874 c -4.07 0.108 -7.195 -2.537 -7.31 -6.723 c -0.108 -3.849 2.887 -6.649 6.964 -6.757 z m -0.556 44.651 c 4.07 0.325 6.893 3.389 6.582 7.336 c -0.31 3.955 -3.464 6.438 -7.643 6.105 c -4.063 -0.321 -6.893 -3.276 -6.567 -7.451 c 0.303 -3.84 3.566 -6.308 7.628 -5.99 z m -5.275 44.398 c 4.013 0.751 6.495 4.096 5.767 8 c -0.729 3.897 -4.128 6.026 -8.249 5.251 c -4.006 -0.755 -6.51 -3.987 -5.737 -8.108 c 0.706 -3.785 4.214 -5.897 8.22 -5.143 z m -9.988 43.533 c 3.912 1.176 6.02 4.777 4.871 8.573 c -1.147 3.796 -4.756 5.546 -8.769 4.334 c -3.904 -1.177 -6.048 -4.666 -4.835 -8.682 c 1.12 -3.688 4.835 -5.405 8.733 -4.225 z m -14.608 42.204 c 3.761 1.595 5.471 5.395 3.927 9.047 c -1.545 3.651 -5.319 5.005 -9.18 3.366 c -3.76 -1.595 -5.515 -5.29 -3.876 -9.15 c 1.501 -3.544 5.384 -4.85 9.13 -3.263 z m -19.059 40.422 c 3.558 1.988 4.85 5.951 2.923 9.411 c -1.934 3.468 -5.83 4.406 -9.49 2.367 c -3.565 -1.984 -4.907 -5.846 -2.872 -9.508 c 1.875 -3.37 5.866 -4.254 9.44 -2.27 z m -23.275 38.12 c 3.334 2.35 4.2 6.423 1.912 9.66 c -2.287 3.244 -6.264 3.767 -9.685 1.342 c -3.335 -2.356 -4.258 -6.34 -1.84 -9.765 c 2.216 -3.138 6.286 -3.593 9.613 -1.237 z M 820.122 776.2 c 3.053 2.695 3.48 6.845 0.858 9.822 c -2.619 2.977 -6.632 3.067 -9.77 0.299 c -3.06 -2.695 -3.559 -6.758 -0.787 -9.908 c 2.54 -2.887 6.64 -2.909 9.7 -0.213 z m -30.845 32.371 c 2.75 3.01 2.734 7.174 -0.188 9.858 s -6.913 2.353 -9.75 -0.736 c -2.757 -3.006 -2.82 -7.102 0.268 -9.93 c 2.843 -2.605 6.906 -2.194 9.67 0.808 z m -34.071 28.893 c 2.417 3.279 1.956 7.426 -1.228 9.778 c -3.189 2.36 -7.13 1.606 -9.62 -1.771 c -2.425 -3.276 -2.063 -7.354 1.313 -9.844 c 3.098 -2.291 7.103 -1.443 9.535 1.837 z m -36.973 25.119 c 2.057 3.519 1.155 7.585 -2.266 9.592 c -3.42 2.002 -7.254 0.837 -9.375 -2.79 c -2.057 -3.518 -1.256 -7.53 2.36 -9.646 c 3.327 -1.945 7.225 -0.682 9.281 2.844 z m -39.418 21.008 c 1.667 3.728 0.34 7.671 -3.276 9.299 c -3.623 1.624 -7.31 0.051 -9.02 -3.774 c -1.675 -3.721 -0.448 -7.621 3.377 -9.343 c 3.513 -1.58 7.245 0.098 8.92 3.818 z m -41.469 16.671 c 1.264 3.879 -0.49 7.664 -4.258 8.892 c -3.774 1.22 -7.268 -0.732 -8.566 -4.724 c -1.256 -3.879 0.383 -7.629 4.373 -8.924 c 3.652 -1.19 7.188 0.877 8.451 4.756 z m -42.998 12.107 c 0.845 3.991 -1.307 7.574 -5.182 8.386 c -3.89 0.815 -7.152 -1.508 -8.01 -5.618 c -0.839 -3.994 1.197 -7.545 5.303 -8.396 c 3.768 -0.799 7.06 1.64 7.89 5.628 z m -44.045 7.425 c 0.396 4.06 -2.114 7.384 -6.063 7.776 c -3.947 0.394 -6.942 -2.27 -7.36 -6.44 c -0.397 -4.06 1.998 -7.372 6.17 -7.784 c 3.84 -0.382 6.85 2.389 7.253 6.448 z m -44.471 2.754 c -0.065 4.077 -2.945 7.091 -6.906 7.021 c -3.963 -0.061 -6.64 -3.053 -6.568 -7.245 c 0.065 -4.078 2.836 -7.091 7.022 -7.026 c 3.861 0.07 6.531 3.169 6.452 7.25 z m -44.802 -2.075 c -0.456 4.053 -3.617 6.776 -7.557 6.329 c -3.934 -0.443 -6.315 -3.673 -5.846 -7.837 c 0.455 -4.053 3.5 -6.788 7.664 -6.322 c 3.84 0.437 6.193 3.774 5.738 7.83 z m -44.147 -6.744 c -0.888 3.98 -4.316 6.351 -8.19 5.492 c -3.876 -0.87 -5.89 -4.33 -4.974 -8.426 c 0.881 -3.98 4.208 -6.373 8.292 -5.463 c 3.761 0.837 5.753 4.414 4.872 8.397 z m -43.186 -11.442 c -1.306 3.864 -4.979 5.853 -8.732 4.575 c -3.752 -1.273 -5.384 -4.937 -4.042 -8.905 c 1.313 -3.861 4.872 -5.886 8.848 -4.543 c 3.645 1.241 5.24 5.011 3.926 8.873 z m -41.714 -16.026 c -1.71 3.702 -5.57 5.286 -9.158 3.612 c -3.608 -1.671 -4.835 -5.481 -3.06 -9.288 c 1.718 -3.699 5.463 -5.33 9.274 -3.565 c 3.493 1.624 4.662 5.543 2.944 9.241 z m -39.736 -20.398 c -2.107 3.493 -6.105 4.655 -9.504 2.608 c -3.399 -2.046 -4.208 -5.965 -2.05 -9.563 c 2.107 -3.492 6.012 -4.712 9.613 -2.547 c 3.298 1.985 4.048 6.005 1.941 9.502 z m -37.333 -24.534 c -2.46 3.251 -6.567 3.977 -9.736 1.584 c -3.154 -2.396 -3.543 -6.387 -1.01 -9.729 c 2.468 -3.255 6.481 -4.049 9.822 -1.516 c 3.067 2.331 3.385 6.41 0.924 9.661 z m -34.541 -28.384 c -2.8 2.97 -6.957 3.258 -9.844 0.537 c -2.879 -2.717 -2.843 -6.729 0.03 -9.775 c 2.8 -2.973 6.87 -3.338 9.922 -0.458 c 2.801 2.633 2.685 6.726 -0.108 9.696 z m -31.3 -31.87 c -3.096 2.655 -7.26 2.497 -9.85 -0.513 c -2.577 -3.01 -2.115 -6.993 1.067 -9.725 c 3.096 -2.656 7.188 -2.587 9.916 0.596 c 2.512 2.93 1.964 6.983 -1.133 9.642 z m -27.77 -35.038 c -3.356 2.313 -7.484 1.71 -9.743 -1.556 c -2.244 -3.266 -1.356 -7.174 2.093 -9.552 c 3.355 -2.313 7.42 -1.808 9.793 1.646 c 2.194 3.168 1.213 7.144 -2.143 9.462 z m -23.86 -37.778 c -3.594 1.935 -7.628 0.905 -9.512 -2.584 c -1.884 -3.485 -0.592 -7.281 3.096 -9.273 c 3.587 -1.941 7.571 -1.007 9.563 2.681 c 1.84 3.388 0.44 7.235 -3.147 9.176 z M 117.75 668.14 c -3.775 1.541 -7.68 0.079 -9.18 -3.59 c -1.502 -3.67 0.194 -7.308 4.077 -8.892 c 3.774 -1.541 7.636 -0.188 9.223 3.695 c 1.457 3.563 -0.347 7.239 -4.12 8.787 z m -15.25 -41.959 c -3.927 1.133 -7.65 -0.743 -8.748 -4.554 c -1.097 -3.808 0.981 -7.235 5.001 -8.4 c 3.926 -1.13 7.621 0.639 8.776 4.665 c 1.068 3.699 -1.11 7.159 -5.03 8.289 z m -10.667 -43.363 c -4.02 0.696 -7.513 -1.565 -8.206 -5.47 c -0.679 -3.905 1.761 -7.091 5.882 -7.81 c 4.02 -0.707 7.498 1.447 8.227 5.575 c 0.664 3.794 -1.884 6.998 -5.903 7.705 z m -5.953 -44.33 c -4.079 0.274 -7.319 -2.353 -7.579 -6.308 c -0.26 -3.958 2.497 -6.866 6.683 -7.148 c 4.07 -0.271 7.304 2.237 7.585 6.424 c 0.252 3.846 -2.628 6.761 -6.69 7.032 z m -1.22 -44.684 c -4.085 -0.158 -7.023 -3.11 -6.872 -7.072 c 0.152 -3.966 3.205 -6.564 7.39 -6.405 c 4.078 0.163 7.03 3.003 6.871 7.192 c -0.15 3.846 -3.32 6.444 -7.39 6.285 z m 3.477 -44.524 c -4.034 -0.592 -6.654 -3.84 -6.077 -7.766 c 0.57 -3.922 3.883 -6.185 8.025 -5.579 c 4.042 0.588 6.676 3.724 6.07 7.874 c -0.555 3.811 -3.976 6.063 -8.018 5.471 z m 8.228 -43.915 c -3.955 -1.021 -6.207 -4.532 -5.21 -8.372 c 0.988 -3.839 4.524 -5.734 8.58 -4.684 c 3.948 1.018 6.23 4.413 5.182 8.476 c -0.967 3.732 -4.612 5.593 -8.552 4.58 z m 12.889 -42.801 c -3.817 -1.436 -5.68 -5.16 -4.279 -8.873 c 1.4 -3.713 5.117 -5.218 9.042 -3.742 c 3.811 1.443 5.716 5.063 4.23 8.989 c -1.357 3.601 -5.182 5.066 -8.993 3.626 z m 17.407 -41.132 c -3.637 -1.84 -5.088 -5.749 -3.305 -9.292 c 1.79 -3.536 5.644 -4.637 9.39 -2.746 c 3.636 1.844 5.145 5.647 3.247 9.393 c -1.732 3.435 -5.694 4.481 -9.332 2.645 z m 21.723 -39.033 c -3.435 -2.223 -4.453 -6.257 -2.295 -9.591 c 2.158 -3.324 6.105 -4.005 9.62 -1.725 c 3.421 2.227 4.511 6.167 2.237 9.682 c -2.107 3.236 -6.14 3.857 -9.562 1.634 z m 25.772 -36.518 c -3.168 -2.573 -3.752 -6.698 -1.255 -9.775 c 2.497 -3.082 6.502 -3.334 9.757 -0.697 c 3.168 2.573 3.825 6.611 1.184 9.873 c -2.433 2.984 -6.518 3.168 -9.686 0.599 z m 29.51 -33.559 c -2.879 -2.894 -3.03 -7.058 -0.224 -9.858 c 2.814 -2.8 6.82 -2.623 9.78 0.35 c 2.872 2.894 3.103 6.982 0.13 9.934 c -2.729 2.714 -6.82 2.465 -9.686 -0.426 z m 32.888 -30.246 c -2.548 -3.179 -2.252 -7.34 0.844 -9.822 c 3.09 -2.482 7.051 -1.887 9.678 1.386 c 2.548 3.183 2.346 7.268 -0.923 9.898 c -3.01 2.403 -7.037 1.721 -9.599 -1.462 z m 35.918 -26.565 c -2.208 -3.439 -1.465 -7.542 1.87 -9.678 c 3.341 -2.136 7.223 -1.125 9.475 2.4 c 2.208 3.442 1.566 7.48 -1.963 9.747 c -3.24 2.077 -7.18 0.966 -9.382 -2.469 z m 38.546 -22.59 c -1.819 -3.648 -0.65 -7.65 2.901 -9.425 c 3.551 -1.771 7.296 -0.346 9.166 3.407 c 1.82 3.648 0.75 7.606 -3.002 9.472 c -3.443 1.725 -7.239 0.198 -9.065 -3.454 z m 40.762 -18.338 c -1.423 -3.825 0.172 -7.679 3.89 -9.058 c 3.723 -1.378 7.295 0.444 8.753 4.374 c 1.415 3.822 -0.08 7.639 -4.005 9.093 c -3.616 1.34 -7.224 -0.584 -8.639 -4.409 z m 42.478 -13.845 c -1.003 -3.958 0.996 -7.621 4.843 -8.584 c 3.847 -0.975 7.203 1.216 8.234 5.283 c 0.996 3.955 -0.888 7.588 -4.958 8.61 c -3.738 0.941 -7.123 -1.358 -8.119 -5.309 z m 43.72 -9.205 c -0.57 -4.035 1.804 -7.462 5.738 -8.015 c 3.926 -0.552 7.03 1.988 7.614 6.138 c 0.563 4.042 -1.703 7.448 -5.853 8.029 c -3.818 0.538 -6.936 -2.111 -7.499 -6.152 z m 44.442 -4.475 c -0.13 -4.078 2.591 -7.221 6.553 -7.358 c 3.962 -0.13 6.784 2.717 6.921 6.914 c 0.137 4.074 -2.483 7.224 -6.669 7.361 c -3.846 0.13 -6.675 -2.836 -6.805 -6.917 z" style="stroke: none; stroke-width: 1; stroke-dasharray: none; stroke-linecap: butt; stroke-linejoin: miter; stroke-miterlimit: 10; fill: #fff; fill-rule: nonzero; opacity: 1;" transform="" stroke-linecap="round" />
</g>
<g style="stroke: none; stroke-width: 1; stroke-dasharray: none; stroke-linecap: butt; stroke-linejoin: miter; stroke-miterlimit: 10; fill: none; fill-rule: nonzero; opacity: 1;" transform="translate(103.95999999999994 82.02999999999997) scale(0.15 0.15)" >
  <path d="M 492.169 259.48 c -0.568 -0.883 -1.171 -1.758 -1.787 -2.631 c 7.393 -10.46 11.387 -21.59 11.387 -33.136 c 0 -10.58 -3.348 -20.817 -9.599 -30.497 c -2.63 -4.087 -5.776 -8.062 -9.417 -11.936 c -37.335 -39.844 -125.701 -67.853 -228.775 -67.853 c -136.848 0 -247.781 49.372 -247.781 110.286 c 0 11.542 4.005 22.666 11.391 33.122 c -7.395 10.461 -11.391 21.593 -11.391 33.142 c 0 11.988 4.297 23.529 12.241 34.334 c -7.933 10.799 -12.241 22.328 -12.241 34.308 c 0 34.827 36.253 65.88 92.888 86.08 c 18.298 6.544 38.731 11.936 60.752 15.962 c 29.02 5.321 60.812 8.244 94.142 8.244 c 136.858 0 247.792 -49.372 247.792 -110.286 c 0 -10.58 -3.348 -20.817 -9.599 -30.497 c -0.827 -1.286 -1.725 -2.557 -2.653 -3.82 c 7.941 -10.803 12.253 -22.338 12.253 -34.323 C 501.768 279.396 498.42 269.16 492.169 259.48 z" style="stroke: none; stroke-width: 1; stroke-dasharray: none; stroke-linecap: butt; stroke-linejoin: miter; stroke-miterlimit: 10; fill: #FFA834; fill-rule: nonzero; opacity: 1;" transform=" matrix(1 0 0 1 0 0) " stroke-linecap="round" />
  <path d="M 501.768 151.763 c 0 60.914 -110.933 110.286 -247.792 110.286 c -33.33 0 -65.122 -2.923 -94.142 -8.244 c -22.021 -4.026 -42.453 -9.417 -60.752 -15.962 c -56.635 -20.2 -92.888 -51.254 -92.888 -86.08 c 0 -60.914 110.933 -110.286 247.781 -110.286 c 103.074 0 191.44 28.009 228.775 67.853 c 3.641 3.874 6.787 7.849 9.417 11.936 C 498.42 130.946 501.768 141.183 501.768 151.763 z" style="stroke: none; stroke-width: 1; stroke-dasharray: none; stroke-linecap: butt; stroke-linejoin: miter; stroke-miterlimit: 10; fill: #FEDAAA; fill-rule: nonzero; opacity: 1;" transform=" matrix(1 0 0 1 0 0) " stroke-linecap="round" />
  <path d="M 501.768 151.763 c 0 60.914 -110.933 110.286 -247.792 110.286 c -33.33 0 -65.122 -2.923 -94.142 -8.244 c -22.021 -4.026 -42.453 -9.417 -60.752 -15.962 c -23.973 -16.437 -37.891 -36.05 -37.891 -57.12 c 0 -58.061 105.744 -105.127 236.189 -105.127 c 62.026 0 118.469 10.641 160.609 28.049 c 12.796 5.28 24.266 11.187 34.179 17.621 C 498.42 130.946 501.768 141.183 501.768 151.763 z" style="stroke: none; stroke-width: 1; stroke-dasharray: none; stroke-linecap: butt; stroke-linejoin: miter; stroke-miterlimit: 10; fill: #f29503; fill-rule: nonzero; opacity: 1;" transform=" matrix(1 0 0 1 0 0) " stroke-linecap="round" />
  <path d="M 501.768 151.763 c 0 60.914 -110.933 110.286 -247.792 110.286 c -33.33 0 -65.122 -2.923 -94.142 -8.244 c -21.252 -15.78 -33.461 -34.24 -33.461 -53.975 c 0 -58.061 105.744 -105.117 236.179 -105.117 c 33.967 0 66.254 3.186 95.437 8.932 c 8.537 1.679 16.801 3.581 24.762 5.685 c 3.641 3.874 6.787 7.849 9.417 11.936 C 498.42 130.946 501.768 141.183 501.768 151.763 z" style="stroke: none; stroke-width: 1; stroke-dasharray: none; stroke-linecap: butt; stroke-linejoin: miter; stroke-miterlimit: 10; fill: #FFA834; fill-rule: nonzero; opacity: 1;" transform=" matrix(1 0 0 1 0 0) " stroke-linecap="round" />
  <path d="M 253.977 151.733 c -14.371 0 -27.689 -8.403 -33.931 -21.406 c -2.434 -5.097 -3.667 -10.546 -3.667 -16.202 c 0 -20.737 16.866 -37.608 37.598 -37.608 c 6.054 0 12.071 1.477 17.401 4.272 c 12.463 6.523 20.207 19.298 20.207 33.338 C 291.585 134.862 274.714 151.733 253.977 151.733 z" style="stroke: none; stroke-width: 1; stroke-dasharray: none; stroke-linecap: butt; stroke-linejoin: miter; stroke-miterlimit: 10; fill: #A81124; fill-rule: nonzero; opacity: 1;" transform=" matrix(1 0 0 1 0 0) " stroke-linecap="round" />
  <path d="M 273.337 98.375 c 0 19.057 -15.507 34.564 -34.564 34.564 c -5.766 0 -11.208 -1.416 -15.992 -3.925 c -2.155 -4.511 -3.368 -9.559 -3.368 -14.89 c 0 -19.067 15.507 -34.574 34.564 -34.574 c 5.766 0 11.208 1.416 15.992 3.925 C 272.124 87.987 273.337 93.044 273.337 98.375 z" style="stroke: none; stroke-width: 1; stroke-dasharray: none; stroke-linecap: butt; stroke-linejoin: miter; stroke-miterlimit: 10; fill: #FF1D25; fill-rule: nonzero; opacity: 1;" transform=" matrix(1 0 0 1 0 0) " stroke-linecap="round" />
  <path d="M 351.417 431.761 c -7.033 0 -12.755 -5.722 -12.755 -12.755 V 261.573 l -5.839 1.718 c -11.138 3.283 -23.823 5.019 -36.685 5.019 c -7.097 0 -14.189 -0.532 -21.082 -1.582 l -1.513 -0.232 l -1.35 0.73 c -0.82 0.443 -1.742 0.898 -2.815 1.392 l -2.633 1.223 v 63.842 c 0 7.039 -5.726 12.765 -12.765 12.765 c -7.033 0 -12.755 -5.726 -12.755 -12.765 v -58.607 h -4.449 l -0.151 0.01 h -0.104 c -3.864 0 -7.742 -0.236 -11.527 -0.7 c -21.096 -2.595 -36.409 -11.888 -36.409 -22.1 c 0 -9.326 13.174 -18.147 32.037 -21.449 l 2.768 -0.479 l 0.806 -2.693 c 3.324 -11.088 17.442 -20.968 37.766 -26.428 l 6.093 -1.639 l -3.479 -5.27 c -4.012 -6.076 -6.046 -12.381 -6.046 -18.736 c 0 -4.786 1.148 -9.572 3.412 -14.225 l 0.642 -1.321 l 1.434 -0.316 c 14.745 -3.242 27.08 -13.502 32.999 -27.445 l 0.462 -1.087 l 1.075 -0.489 c 22.432 -10.195 51.07 -15.809 80.639 -15.809 c 49.135 0 94.296 15.567 112.375 38.735 c 3.7 4.727 6.201 9.704 7.427 14.791 l 0.083 0.344 l 0.78 185.219 c 0 7.046 -5.722 12.768 -12.755 12.768 c -7.033 0 -12.754 -5.722 -12.754 -12.755 V 212.423 l -6.961 4.345 c -27.221 16.993 -70.856 21.664 -89.489 23.657 c -10.778 1.146 -11.502 1.333 -12.907 3.343 l -0.819 1.17 v 174.067 C 364.172 426.039 358.451 431.761 351.417 431.761 z" style="stroke: none; stroke-width: 1; stroke-dasharray: none; stroke-linecap: butt; stroke-linejoin: miter; stroke-miterlimit: 10; fill: #CCD6DB; fill-rule: nonzero; opacity: 1;" transform=" matrix(1 0 0 1 0 0) " stroke-linecap="round" />
  <path d="M 496.822 354.006 c 0 4.896 -3.641 8.962 -8.355 9.62 c -0.445 0.071 -0.9 0.101 -1.366 0.101 c -5.361 0 -9.721 -4.36 -9.721 -9.721 V 206.952 l -11.602 7.242 c -26.623 16.619 -69.775 21.242 -88.204 23.214 c -10.843 1.153 -12.796 1.366 -15.072 4.623 l -1.366 1.952 v 175.023 c 0 5.361 -4.36 9.721 -9.721 9.721 c -0.496 0 -0.971 -0.04 -1.446 -0.111 c -4.673 -0.698 -8.274 -4.744 -8.274 -9.609 V 257.517 l -9.731 2.863 c -10.843 3.196 -23.235 4.896 -35.828 4.896 c -6.979 0 -13.918 -0.526 -20.625 -1.548 l -2.519 -0.384 l -2.246 1.214 c -0.769 0.415 -1.629 0.84 -2.64 1.305 l -4.4 2.043 v 65.779 c 0 5.361 -4.37 9.731 -9.731 9.731 c -0.668 0 -1.325 -0.071 -1.952 -0.202 c -4.43 -0.91 -7.768 -4.835 -7.768 -9.529 v -61.642 h -7.586 l -0.152 0.01 c -3.884 0 -7.617 -0.243 -11.157 -0.678 c 0.85 -1.699 1.881 -3.247 3.115 -4.542 c 5.917 -6.221 16.69 -8.82 24.752 -10.226 l 4.623 -0.809 l 1.345 -4.491 c 2.964 -9.913 16.629 -19.259 35.646 -24.367 l 10.156 -2.731 l -5.796 -8.78 c -3.682 -5.563 -5.543 -11.299 -5.543 -17.064 c 0 -4.41 1.072 -8.729 3.105 -12.897 c 15.861 -3.49 28.919 -14.556 35.13 -29.213 c 21.1 -9.599 49.129 -15.547 79.394 -15.547 c 29.425 0 56.898 5.604 77.887 14.799 c 3.389 4.329 5.725 8.891 6.868 13.635 L 496.822 354.006 z" style="stroke: none; stroke-width: 1; stroke-dasharray: none; stroke-linecap: butt; stroke-linejoin: miter; stroke-miterlimit: 10; fill: #ffffff; fill-rule: nonzero; opacity: 1;" transform=" matrix(1 0 0 1 0 0) " stroke-linecap="round" />
  <path d="M 462.208 289.977 v 50.505 c -10.105 7.839 -22.557 15.173 -37.113 21.727 c -14.788 6.666 -31.185 12.351 -48.786 17.004 v -53.57 c 19.907 -5.047 38.407 -11.349 55.016 -18.834 C 442.858 301.619 453.165 295.975 462.208 289.977 z" style="stroke: none; stroke-width: 1; stroke-dasharray: none; stroke-linecap: butt; stroke-linejoin: miter; stroke-miterlimit: 10; fill: #FFA834; fill-rule: nonzero; opacity: 1;" transform=" matrix(1 0 0 1 0 0) " stroke-linecap="round" />
  <path d="M 326.523 355.877 v 33.249 c -23.154 3.247 -47.551 4.936 -72.546 4.936 c -64.757 0 -125.529 -11.309 -171.108 -31.853 c -43.02 -19.381 -67.701 -45.478 -67.701 -71.595 c 0 -0.354 0 -0.698 0.02 -1.052 c 15.223 13.109 40.946 28.697 61.45 37.932 c 41.715 18.794 95.386 30.174 153.134 32.662 c 2.62 10.945 12.482 19.108 24.206 19.108 c 11.734 0 21.596 -8.163 24.216 -19.108 C 294.701 359.448 310.865 358.012 326.523 355.877 z" style="stroke: none; stroke-width: 1; stroke-dasharray: none; stroke-linecap: butt; stroke-linejoin: miter; stroke-miterlimit: 10; fill: #f29503; fill-rule: nonzero; opacity: 1;" transform=" matrix(1 0 0 1 0 0) " stroke-linecap="round" />
  <path d="M 160.229 370.355 c 6.089 1.291 11.517 2.332 17.804 3.401 l 2.24 -14.984 c -5.855 -1.009 -11.627 -2.114 -17.299 -3.322 L 160.229 370.355 z" style="stroke: none; stroke-width: 1; stroke-dasharray: none; stroke-linecap: butt; stroke-linejoin: miter; stroke-miterlimit: 10; fill: #FEDAAA; fill-rule: nonzero; opacity: 1;" transform=" matrix(1 0 0 1 0 0) " stroke-linecap="round" />
  <path d="M 149.223 352.279 c -22.38 -5.558 -43.009 -12.705 -61.155 -21.296 c -3.926 -1.859 -7.675 -3.777 -11.282 -5.738 l -8.009 12.92 c 4.086 2.235 8.337 4.419 12.799 6.531 c 19.012 9 40.585 16.475 63.944 22.276 L 149.223 352.279 z" style="stroke: none; stroke-width: 1; stroke-dasharray: none; stroke-linecap: butt; stroke-linejoin: miter; stroke-miterlimit: 10; fill: #FEDAAA; fill-rule: nonzero; opacity: 1;" transform=" matrix(1 0 0 1 0 0) " stroke-linecap="round" />
  <path d="M 462.208 310.652 v 29.83 c -10.105 7.839 -22.557 15.173 -37.113 21.727 c -14.788 6.666 -31.185 12.351 -48.786 17.004 v -32.895 c 19.907 -5.037 38.407 -11.349 55.016 -18.824 C 442.858 322.295 453.165 316.651 462.208 310.652 z" style="stroke: none; stroke-width: 1; stroke-dasharray: none; stroke-linecap: butt; stroke-linejoin: miter; stroke-miterlimit: 10; fill: #f29503; fill-rule: nonzero; opacity: 1;" transform=" matrix(1 0 0 1 0 0) " stroke-linecap="round" />
  <path d="M 462.208 233.302 v 37.952 c -10.105 7.839 -22.557 15.163 -37.113 21.727 c -14.788 6.666 -31.185 12.351 -48.786 16.993 v -53.57 c 7.435 -1.881 14.677 -3.935 21.697 -6.17 C 416.74 247.635 441.593 242.881 462.208 233.302 z" style="stroke: none; stroke-width: 1; stroke-dasharray: none; stroke-linecap: butt; stroke-linejoin: miter; stroke-miterlimit: 10; fill: #FFA834; fill-rule: nonzero; opacity: 1;" transform=" matrix(1 0 0 1 0 0) " stroke-linecap="round" />
  <path d="M 326.523 277.373 v 42.514 c -15.395 2.165 -31.337 3.631 -47.642 4.38 v -44.79 C 294.752 281.278 311.522 280.519 326.523 277.373 z" style="stroke: none; stroke-width: 1; stroke-dasharray: none; stroke-linecap: butt; stroke-linejoin: miter; stroke-miterlimit: 10; fill: #FFA834; fill-rule: nonzero; opacity: 1;" transform=" matrix(1 0 0 1 0 0) " stroke-linecap="round" />
  <path d="M 229.084 310.652 v 13.615 c -55.32 -2.519 -106.523 -13.403 -146.215 -31.286 c -43.02 -19.391 -67.701 -45.488 -67.701 -71.595 v -0.01 c 15.021 13.524 40.703 30.528 61.47 39.884 c 29.658 13.362 65.354 22.982 104.257 28.322 c 3.298 4.744 8.345 8.982 15.001 12.452 C 205.07 306.809 216.652 309.793 229.084 310.652 z" style="stroke: none; stroke-width: 1; stroke-dasharray: none; stroke-linecap: butt; stroke-linejoin: miter; stroke-miterlimit: 10; fill: #f29503; fill-rule: nonzero; opacity: 1;" transform=" matrix(1 0 0 1 0 0) " stroke-linecap="round" />
  <path d="M 462.208 256.981 v 14.273 c -10.105 7.839 -22.557 15.163 -37.113 21.727 c -14.788 6.666 -31.185 12.351 -48.786 16.993 v -29.89 c 7.435 -1.881 14.677 -3.935 21.697 -6.17 C 416.74 271.314 441.593 266.56 462.208 256.981 z" style="stroke: none; stroke-width: 1; stroke-dasharray: none; stroke-linecap: butt; stroke-linejoin: miter; stroke-miterlimit: 10; fill: #f29503; fill-rule: nonzero; opacity: 1;" transform=" matrix(1 0 0 1 0 0) " stroke-linecap="round" />
  <path d="M 326.523 301.053 v 18.834 c -15.395 2.165 -31.337 3.631 -47.642 4.38 v -21.11 C 294.752 304.957 311.522 304.199 326.523 301.053 z" style="stroke: none; stroke-width: 1; stroke-dasharray: none; stroke-linecap: butt; stroke-linejoin: miter; stroke-miterlimit: 10; fill: #f29503; fill-rule: nonzero; opacity: 1;" transform=" matrix(1 0 0 1 0 0) " stroke-linecap="round" />
  <path d="M 326.523 444.365 c 0 4.946 1.446 9.559 3.955 13.433 c -24.327 3.621 -50.08 5.503 -76.501 5.503 c -64.757 0 -125.529 -11.319 -171.108 -31.853 c -41.341 -18.632 -65.739 -43.455 -67.58 -68.53 c 16.7 13.544 42.605 30.032 61.349 38.478 c 47.491 21.404 110.478 33.198 177.339 33.198 c 24.924 0 49.301 -1.649 72.546 -4.805 V 444.365 z" style="stroke: none; stroke-width: 1; stroke-dasharray: none; stroke-linecap: butt; stroke-linejoin: miter; stroke-miterlimit: 10; fill: #f29503; fill-rule: nonzero; opacity: 1;" transform=" matrix(1 0 0 1 0 0) " stroke-linecap="round" />
  <path d="M 488.467 378.859 c -8.82 19.431 -30.851 37.932 -63.372 52.589 c -14.89 6.706 -31.398 12.432 -49.14 17.105 c 0.233 -1.355 0.354 -2.761 0.354 -4.188 V 420.23 c 19.907 -5.047 38.407 -11.349 55.016 -18.834 c 8.74 -3.945 33.087 -15.395 48.725 -23.518 c 2.235 0.668 4.602 1.022 7.05 1.022 C 487.557 378.899 488.012 378.879 488.467 378.859 z" style="stroke: none; stroke-width: 1; stroke-dasharray: none; stroke-linecap: butt; stroke-linejoin: miter; stroke-miterlimit: 10; fill: #f29503; fill-rule: nonzero; opacity: 1;" transform=" matrix(1 0 0 1 0 0) " stroke-linecap="round" />
  <path d="M 511.209 167.455 l -0.165 -0.77 c -0.707 -3.302 -1.816 -6.546 -3.297 -9.717 c 0.13 -1.599 0.215 -3.203 0.215 -4.816 c 0 -32.82 -27.217 -63.159 -76.638 -85.43 C 383.83 45.319 320.848 33.532 253.982 33.532 c -66.865 0 -129.849 11.787 -177.344 33.191 C 27.217 88.992 0 119.332 0 152.151 c 0 11.959 3.63 23.586 10.616 34.616 C 3.63 197.798 0 209.425 0 221.384 S 3.63 244.97 10.616 256 C 3.63 267.031 0 278.657 0 290.616 s 3.63 23.586 10.616 34.616 C 3.63 336.263 0 347.889 0 359.848 c 0 32.82 27.217 63.159 76.638 85.43 c 47.497 21.404 110.479 33.191 177.344 33.191 c 66.866 0 129.849 -11.787 177.344 -33.191 c 45.043 -20.297 71.631 -47.3 75.989 -76.771 c 2.944 -4.094 4.685 -9.111 4.685 -14.536 l -0.788 -185.729 L 511.209 167.455 z M 82.871 80.555 c 45.58 -20.54 106.348 -31.851 171.111 -31.851 s 125.531 11.312 171.111 31.852 c 33.058 14.898 55.267 33.756 63.789 53.54 c -6.387 -5.114 -13.997 -9.781 -22.715 -13.871 c -23.998 -11.259 -54.885 -17.46 -86.968 -17.46 c -28.262 0 -54.196 4.612 -75.503 12.562 c 0.009 -0.402 0.03 -0.8 0.03 -1.204 c 0 -27.429 -22.314 -49.744 -49.743 -49.744 s -49.744 22.315 -49.744 49.744 c 0 25.454 19.222 46.491 43.91 49.39 c -1.147 3.922 -1.753 7.956 -1.753 12.082 c 0 5.695 1.139 11.294 3.395 16.729 c -17.598 6.297 -30.105 15.932 -35.509 27.402 c -21.913 4.847 -36.253 16.336 -37.702 30.227 c -34.958 -5.276 -66.951 -14.148 -93.707 -26.205 c -43.025 -19.389 -67.7 -45.484 -67.7 -71.597 S 39.848 99.943 82.871 80.555 z M 288.553 114.122 c 0 19.062 -15.509 34.571 -34.571 34.571 c -19.063 0 -34.572 -15.509 -34.572 -34.571 c 0 -19.063 15.509 -34.572 34.572 -34.572 C 273.044 79.551 288.553 95.059 288.553 114.122 z M 20.725 199.833 c 12.96 14.071 31.781 26.874 55.913 37.748 c 29.658 13.364 65.353 22.98 104.262 28.317 c 3.292 4.746 8.344 8.986 15.002 12.455 c 9.17 4.778 20.749 7.762 33.186 8.616 v 37.296 c -55.327 -2.517 -106.53 -13.401 -146.216 -31.285 c -43.024 -19.388 -67.699 -45.484 -67.699 -71.596 C 15.173 214.151 17.073 206.921 20.725 199.833 z M 20.725 269.065 c 12.96 14.071 31.781 26.874 55.912 37.748 c 41.718 18.799 95.386 30.178 153.137 32.668 c 2.619 10.942 12.475 19.104 24.208 19.104 s 21.59 -8.161 24.208 -19.104 c 16.507 -0.712 32.679 -2.149 48.334 -4.279 v 53.921 c -23.159 3.249 -47.55 4.94 -72.542 4.94 c -64.763 0 -125.531 -11.312 -171.111 -31.851 c -43.022 -19.387 -67.697 -45.483 -67.697 -71.596 C 15.173 283.384 17.073 276.153 20.725 269.065 z M 278.878 324.265 v -44.789 c 15.871 1.797 32.648 1.04 47.647 -2.099 v 42.514 C 311.125 322.051 295.182 323.523 278.878 324.265 z M 425.092 431.445 c -45.58 20.54 -106.348 31.852 -171.111 31.852 S 128.45 451.985 82.87 431.445 c -43.022 -19.387 -67.697 -45.483 -67.697 -71.596 c 0 -7.232 1.901 -14.464 5.552 -21.551 c 12.96 14.071 31.781 26.874 55.913 37.748 c 47.497 21.403 110.479 33.191 177.344 33.191 c 24.921 0 49.301 -1.64 72.542 -4.802 v 14.573 c 0 13.727 11.168 24.895 24.895 24.895 c 13.726 0 24.894 -11.168 24.894 -24.895 v -24.135 c 19.898 -5.039 38.404 -11.343 55.011 -18.826 c 11.737 -5.288 22.204 -11.038 31.368 -17.161 c 2.275 11.398 12.355 20.014 24.411 20.014 c 0.456 0 0.909 -0.014 1.36 -0.038 C 479.648 398.294 457.62 416.788 425.092 431.445 z M 431.325 306.814 c 11.53 -5.196 21.836 -10.836 30.885 -16.84 v 50.511 c -10.111 7.837 -22.56 15.168 -37.118 21.727 c -14.785 6.663 -31.178 12.348 -48.778 16.998 v -53.57 C 396.213 320.601 414.718 314.297 431.325 306.814 z M 376.315 309.978 v -53.57 c 7.434 -1.882 14.676 -3.938 21.694 -6.17 c 18.73 -2.602 43.585 -7.36 64.202 -16.936 v 37.95 c -10.111 7.837 -22.56 15.168 -37.118 21.727 C 410.307 299.643 393.915 305.328 376.315 309.978 z M 487.106 363.726 c -5.361 0 -9.722 -4.362 -9.722 -9.723 V 206.95 l -11.604 7.244 c -26.627 16.623 -69.777 21.238 -88.202 23.208 c -10.844 1.159 -12.798 1.369 -15.069 4.623 l -1.367 1.956 v 175.025 c 0 5.361 -4.361 9.723 -9.722 9.723 s -9.723 -4.362 -9.723 -9.723 V 257.515 l -9.732 2.869 c -10.845 3.197 -23.235 4.888 -35.826 4.888 c -6.977 0 -13.917 -0.52 -20.627 -1.546 l -2.521 -0.385 l -2.243 1.216 c -0.768 0.417 -1.631 0.845 -2.639 1.311 l -4.405 2.035 v 65.788 c 0 5.361 -4.361 9.723 -9.723 9.723 c -5.361 0 -9.723 -4.362 -9.723 -9.723 v -61.642 h -7.586 l -0.154 0.002 c -25.698 0 -44.899 -10.433 -44.899 -19.761 c 0 -6.447 10.347 -15.107 29.521 -18.455 l 4.618 -0.806 l 1.345 -4.49 c 2.972 -9.919 16.629 -19.257 35.644 -24.37 l 10.159 -2.732 l -5.798 -8.776 c -3.676 -5.562 -5.539 -11.304 -5.539 -17.064 c 0 -4.416 1.077 -8.735 3.104 -12.897 c 15.864 -3.49 28.918 -14.562 35.132 -29.219 c 21.103 -9.59 49.131 -15.541 79.393 -15.541 c 58.879 0 109.916 22.431 116.846 51.203 l 0.784 184.863 C 496.827 359.364 492.467 363.726 487.106 363.726 z" style="stroke: none; stroke-width: 1; stroke-dasharray: none; stroke-linecap: butt; stroke-linejoin: miter; stroke-miterlimit: 10; fill: rgb(0,0,0); fill-rule: nonzero; opacity: 1;" transform=" matrix(1 0 0 1 0 0) " stroke-linecap="round" />
  <path d="M 488.467 198.449 v 165.177 c -0.527 0.084 -1.068 0.111 -1.622 0.098 c -5.278 -0.121 -9.464 -4.513 -9.464 -9.794 V 206.951 l -11.602 7.242 c -26.623 16.619 -69.775 21.242 -88.204 23.214 c -10.843 1.153 -12.796 1.366 -15.072 4.623 l -1.366 1.952 v 174.708 c 0 5.072 -3.758 9.49 -8.804 9.989 c -0.843 0.083 -1.602 0.048 -2.363 -0.066 V 241.32 c 0 -9.395 7.622 -17.03 17.017 -16.986 c 25.44 0.117 74.049 -3.816 108.248 -32.174 C 480.495 187.796 488.467 191.614 488.467 198.449 z" style="stroke: none; stroke-width: 1; stroke-dasharray: none; stroke-linecap: butt; stroke-linejoin: miter; stroke-miterlimit: 10; fill: #ffffff; fill-rule: nonzero; opacity: 1;" transform=" matrix(1 0 0 1 0 0) " stroke-linecap="round" />
  <path d="M 263.708 267.906 v 65.779 c 0 5.361 -4.37 9.731 -9.731 9.731 c -0.668 0 -1.325 -0.071 -1.952 -0.202 v -59.31 C 252.026 276.596 256.749 270.129 263.708 267.906 L 263.708 267.906 z" style="stroke: none; stroke-width: 1; stroke-dasharray: none; stroke-linecap: butt; stroke-linejoin: miter; stroke-miterlimit: 10; fill: #ffffff; fill-rule: nonzero; opacity: 1;" transform=" matrix(1 0 0 1 0 0) " stroke-linecap="round" />
  <circle cx="420.48" cy="178.78" r="31.99" style="stroke: none; stroke-width: 1; stroke-dasharray: none; stroke-linecap: butt; stroke-linejoin: miter; stroke-miterlimit: 10; fill: #ffffff; fill-rule: nonzero; opacity: 1;" transform="  matrix(1 0 0 1 0 0) "/>
  <circle cx="360.26800000000003" cy="192.928" r="16.048" style="stroke: none; stroke-width: 1; stroke-dasharray: none; stroke-linecap: butt; stroke-linejoin: miter; stroke-miterlimit: 10; fill: #ffffff; fill-rule: nonzero; opacity: 1;" transform="  matrix(1 0 0 1 0 0) "/>
  <circle cx="309.691" cy="241.721" r="12.311" style="stroke: none; stroke-width: 1; stroke-dasharray: none; stroke-linecap: butt; stroke-linejoin: miter; stroke-miterlimit: 10; fill: #ffffff; fill-rule: nonzero; opacity: 1;" transform="  matrix(1 0 0 1 0 0) "/>
  <circle cx="317.35" cy="203.42" r="7.66" style="stroke: none; stroke-width: 1; stroke-dasharray: none; stroke-linecap: butt; stroke-linejoin: miter; stroke-miterlimit: 10; fill: #ffffff; fill-rule: nonzero; opacity: 1;" transform="  matrix(1 0 0 1 0 0) "/>
  <circle cx="251.611" cy="97.991" r="13.361" style="stroke: none; stroke-width: 1; stroke-dasharray: none; stroke-linecap: butt; stroke-linejoin: miter; stroke-miterlimit: 10; fill: #910912; fill-rule: nonzero; opacity: 1;" transform="  matrix(1 0 0 1 0 0) "/>
  <circle cx="232.834" cy="117.72399999999999" r="3.594" style="stroke: none; stroke-width: 1; stroke-dasharray: none; stroke-linecap: butt; stroke-linejoin: miter; stroke-miterlimit: 10; fill: #910912; fill-rule: nonzero; opacity: 1;" transform="  matrix(1 0 0 1 0 0) "/>
</g>
  <g transform="translate(383.67 93.81) scale(1.49 1.49)">
   <text font-family="zwodrei - free" font-size="40" font-weight="normal" style="stroke: none; stroke-width: 1; stroke-dasharray: none; stroke-linecap: butt; stroke-linejoin: miter; stroke-miterlimit: 10; fill: #1471a3; fill-rule: nonzero; opacity: 1;" ><tspan x="-60.52" y="8.98" style="stroke: none; stroke-width: 0; stroke-dasharray: none; stroke-linecap: butt; stroke-linejoin: miter; stroke-miterlimit: 4; fill: #1471a3; fill-rule: ; opacity: 1;">K</tspan><tspan x="-35.44" y="8.98" style="stroke: none; stroke-width: 0; stroke-dasharray: none; stroke-linecap: butt; stroke-linejoin: miter; stroke-miterlimit: 4; fill: #1471a3; fill-rule: ; opacity: 1;">h</tspan><tspan x="-12.56" y="8.98" style="stroke: none; stroke-width: 0; stroke-dasharray: none; stroke-linecap: butt; stroke-linejoin: miter; stroke-miterlimit: 4; fill: #1471a3; fill-rule: ; opacity: 1;">a</tspan><tspan x="7.16" y="8.98" style="stroke: none; stroke-width: 0; stroke-dasharray: none; stroke-linecap: butt; stroke-linejoin: miter; stroke-miterlimit: 4; fill: #1471a3; fill-rule: ; opacity: 1;">i</tspan><tspan x="17.96" y="8.98" style="stroke: none; stroke-width: 0; stroke-dasharray: none; stroke-linecap: butt; stroke-linejoin: miter; stroke-miterlimit: 4; fill: #1471a3; fill-rule: ; opacity: 1;">b</tspan><tspan x="40.8" y="8.98" style="stroke: none; stroke-width: 0; stroke-dasharray: none; stroke-linecap: butt; stroke-linejoin: miter; stroke-miterlimit: 4; fill: #1471a3; fill-rule: ; opacity: 1;">a</tspan></text>
 </g>
<g style="stroke: none; stroke-width: 1; stroke-dasharray: none; stroke-linecap: butt; stroke-linejoin: miter; stroke-miterlimit: 10; fill: none; fill-rule: nonzero; opacity: 1;" transform="translate(343.74 105.57999999999997) scale(0.15 0.15)" >
  <path d="M 221.885 143.581 c -2.198 -9.014 -5.014 -17.223 -8.019 -24.521 c -2.408 -5.853 -4.952 -11.109 -7.403 -15.706 c -3.581 -6.722 -6.984 -12.031 -9.528 -15.706 H 56.786 v -0.003 h -9.25 c -8.891 0 -16.125 -7.234 -16.125 -16.125 c 0 -8.891 7.234 -16.125 16.125 -16.125 h 72.304 v -31.41 H 47.537 C 21.325 23.985 0 45.311 0 71.521 c 0 24.159 18.12 44.151 41.481 47.137 c 0 0.005 0 0.009 0 0.015 c 1.508 28.835 7.371 54.645 17.475 76.874 c 10.01 22.009 24.176 40.636 42.133 55.346 c 31.149 25.537 64.791 32.217 77.805 33.914 c 2.712 0.346 4.387 0.461 4.691 0.482 l 0.482 0.031 h 9.005 c 3.455 -5.225 6.638 -10.46 9.539 -15.706 c 2.921 -5.225 5.56 -10.46 7.937 -15.706 C 227.089 217.451 230.911 180.48 221.885 143.581 z M 169.524 171.214 h -24.522 v -24.522 h 24.522 V 171.214 z" style="stroke: none; stroke-width: 1; stroke-dasharray: none; stroke-linecap: butt; stroke-linejoin: miter; stroke-miterlimit: 10; fill: #a11417; fill-rule: nonzero; opacity: 1;" transform=" matrix(1 0 0 1 0 0) " stroke-linecap="round" />
  <path d="M 502.105 203.337 c -1.267 5.162 -2.806 10.512 -4.649 15.988 c -1.215 3.591 -2.586 7.308 -4.157 11.12 v 0.01 c -3.351 8.177 -7.549 16.784 -12.805 25.527 c -12.177 20.281 -30.05 41.348 -56.247 59.744 c -4.335 3.047 -8.889 6.01 -13.695 8.889 c -4.544 2.722 -9.298 5.371 -14.271 7.916 c 0.775 3.801 1.183 7.727 1.183 11.748 c 0 27.222 -18.562 50.203 -43.689 56.947 c -5.205 -24.956 -27.324 -43.706 -53.824 -43.706 H 235.67 v 10.26 c 0 30.368 24.619 54.987 54.988 54.987 c -30.369 0 -54.988 24.619 -54.988 54.987 v 10.26 h 64.282 c 30.085 0 54.512 -24.165 54.966 -54.141 c 0.002 0 0.004 0 0.005 0 C 442.916 425.582 512 351.273 512 261.144 C 512 240.884 508.513 221.43 502.105 203.337 z" style="stroke: none; stroke-width: 1; stroke-dasharray: none; stroke-linecap: butt; stroke-linejoin: miter; stroke-miterlimit: 10; fill: #a11417; fill-rule: nonzero; opacity: 1;" transform=" matrix(1 0 0 1 0 0) " stroke-linecap="round" />
  <path d="M 358.891 88.844 c 2.618 5.12 5.256 10.805 7.759 17.014 c 2.188 5.403 4.272 11.214 6.157 17.391 c 0.953 3.12 1.853 6.345 2.691 9.654 c 7.895 31.212 10.983 75.198 -8.722 125.54 c -1.864 4.774 -3.937 9.601 -6.23 14.481 c -2.22 4.712 -4.638 9.465 -7.277 14.271 c 11.235 2.911 21.182 9.046 28.773 17.37 c 4.858 -2.482 9.528 -5.089 14.02 -7.832 c 4.555 -2.775 8.931 -5.675 13.109 -8.722 c 27.736 -20.155 47.19 -46.08 58.09 -77.47 c 0.639 -1.843 1.236 -3.675 1.79 -5.487 c 2.618 -8.512 4.345 -16.616 5.466 -23.956 c 1.539 -10.104 1.927 -18.763 1.916 -25.087 C 448.602 119.584 406.689 94.456 358.891 88.844 z" style="stroke: none; stroke-width: 1; stroke-dasharray: none; stroke-linecap: butt; stroke-linejoin: miter; stroke-miterlimit: 10; fill: #a11417; fill-rule: nonzero; opacity: 1;" transform=" matrix(1 0 0 1 0 0) " stroke-linecap="round" />
  <path d="M 345.05 140.61 c -1.979 -7.821 -4.377 -15.025 -6.942 -21.548 c -2.272 -5.78 -4.68 -11.036 -7.047 -15.706 c -3.214 -6.356 -6.366 -11.622 -9.025 -15.706 h -88.328 c 2.523 4.67 5.12 9.926 7.633 15.706 c 2.125 4.869 4.178 10.114 6.083 15.706 c 1.675 4.911 3.225 10.083 4.596 15.517 c 7.528 29.757 10.544 71.513 -7.57 119.331 c -1.948 5.162 -4.157 10.408 -6.628 15.706 c -2.408 5.172 -5.078 10.418 -8.031 15.706 h 88.119 c 3.33 -5.225 6.397 -10.46 9.203 -15.706 c 2.817 -5.225 5.361 -10.46 7.654 -15.706 C 351.164 216.446 354.63 178.501 345.05 140.61 z" style="stroke: none; stroke-width: 1; stroke-dasharray: none; stroke-linecap: butt; stroke-linejoin: miter; stroke-miterlimit: 10; fill: #a11417; fill-rule: nonzero; opacity: 1;" transform=" matrix(1 0 0 1 0 0) " stroke-linecap="round" />
</g>
  <g transform="translate(383.54 204.69) scale(1.45 1.45)">
   <text font-family="Merkin" font-size="40" font-weight="normal" style="stroke: none; stroke-width: 1; stroke-dasharray: none; stroke-linecap: butt; stroke-linejoin: miter; stroke-miterlimit: 10; fill: #1bb589; fill-rule: nonzero; opacity: 1;" ><tspan x="-50.06" y="8.98" style="stroke: none; stroke-width: 0; stroke-dasharray: none; stroke-linecap: butt; stroke-linejoin: miter; stroke-miterlimit: 4; fill: #1bb589; fill-rule: ; opacity: 1;">N</tspan><tspan x="-16.98" y="8.98" style="stroke: none; stroke-width: 0; stroke-dasharray: none; stroke-linecap: butt; stroke-linejoin: miter; stroke-miterlimit: 4; fill: #1bb589; fill-rule: ; opacity: 1;">a</tspan><tspan x="10.1" y="8.98" style="stroke: none; stroke-width: 0; stroke-dasharray: none; stroke-linecap: butt; stroke-linejoin: miter; stroke-miterlimit: 4; fill: #1bb589; fill-rule: ; opacity: 1;">k</tspan><tspan x="36.14" y="8.98" style="stroke: none; stroke-width: 0; stroke-dasharray: none; stroke-linecap: butt; stroke-linejoin: miter; stroke-miterlimit: 4; fill: #1bb589; fill-rule: ; opacity: 1;">i</tspan></text>
 </g>
  <g transform="translate(469.43 204.82) scale(1.55 1.55)">
   <text font-family="Avondale Inline" font-size="40" font-weight="normal" style="stroke: none; stroke-width: 1; stroke-dasharray: none; stroke-linecap: butt; stroke-linejoin: miter; stroke-miterlimit: 10; fill: #ff0000; fill-rule: nonzero; opacity: 1;" ><tspan x="-7.7" y="8.98" style="stroke: none; stroke-width: 0; stroke-dasharray: none; stroke-linecap: butt; stroke-linejoin: miter; stroke-miterlimit: 4; fill: #ff0000; fill-rule: ; opacity: 1;">!</tspan></text>
 </g>
</svg>